<?xml version="1.0" standalone="no"?>
<!DOCTYPE svg PUBLIC "-//W3C//DTD SVG 20010904//EN"
 "http://www.w3.org/TR/2001/REC-SVG-20010904/DTD/svg10.dtd">
<svg version="1.0" xmlns="http://www.w3.org/2000/svg"
 width="128.000000pt" height="128.000000pt" viewBox="0 0 128.000000 128.000000"
 preserveAspectRatio="xMidYMid meet">

<g transform="translate(0.000000,128.000000) scale(0.100000,-0.100000)"
fill="currentColor" stroke="none">
<path d="M546 1184 c-34 -11 -64 -31 -102 -68 -78 -79 -84 -106 -84 -406 l0
-247 -45 -17 c-52 -20 -90 -61 -105 -114 -6 -20 -10 -84 -8 -142 2 -85 6 -105
18 -105 12 0 16 22 20 121 6 133 16 159 73 194 23 14 50 20 97 20 64 0 64 0
117 -52 l53 -52 30 29 30 29 30 -29 30 -29 53 52 c53 52 53 52 117 52 47 0 74
-6 97 -20 57 -35 67 -61 73 -195 4 -98 8 -120 20 -120 12 0 16 20 18 105 2 58
-2 122 -8 142 -15 53 -53 94 -105 114 l-45 17 0 247 c0 300 -6 327 -84 406
-80 79 -178 102 -290 68z m175 -39 c24 -9 63 -34 86 -57 68 -66 73 -94 73
-380 l0 -248 -37 0 c-84 0 -109 76 -49 155 39 50 49 96 44 193 l-3 64 -39 13
c-48 17 -54 23 -71 71 -15 43 -32 55 -41 27 -29 -89 -39 -96 -154 -103 l-85
-5 -3 -75 c-4 -102 3 -132 43 -185 60 -78 37 -155 -47 -155 l-38 0 0 248 c0
294 5 318 80 385 73 66 153 83 241 52z m3 -264 c10 -11 31 -25 48 -32 l30 -12
-4 -78 c-3 -83 -17 -113 -72 -153 -39 -29 -133 -29 -172 0 -55 41 -69 70 -73
155 l-3 79 66 0 c67 0 110 14 135 44 17 21 24 20 45 -3z m-4 -356 c0 -12 -18
-39 -40 -60 l-40 -39 -40 39 c-22 21 -40 48 -40 60 0 18 6 20 80 20 74 0 80
-2 80 -20z m-140 -90 c32 -33 33 -36 17 -52 -16 -17 -19 -15 -54 19 -31 31
-35 39 -24 52 18 22 23 21 61 -19z m181 19 c11 -13 7 -21 -24 -52 -35 -34 -38
-36 -54 -19 -16 16 -15 19 17 52 38 40 43 41 61 19z"/>
</g>
</svg>
