<?xml version="1.0" standalone="no"?>
<!DOCTYPE svg PUBLIC "-//W3C//DTD SVG 20010904//EN"
 "http://www.w3.org/TR/2001/REC-SVG-20010904/DTD/svg10.dtd">
<svg version="1.0" xmlns="http://www.w3.org/2000/svg"
 width="256.000000pt" height="256.000000pt" viewBox="0 0 256.000000 256.000000"
 preserveAspectRatio="xMidYMid meet">

<g transform="translate(0.000000,256.000000) scale(0.100000,-0.100000)"
fill="currentColor" stroke="none">
<path d="M1083 2465 c-177 -48 -317 -195 -354 -372 -13 -65 -7 -273 9 -313 9
-21 6 -30 -21 -57 -58 -61 -47 -193 21 -261 21 -21 55 -43 77 -50 36 -11 43
-19 72 -79 17 -38 50 -88 72 -112 36 -39 41 -50 41 -90 0 -45 -1 -47 -65 -89
-54 -35 -73 -42 -113 -42 -68 0 -192 -34 -265 -72 -81 -42 -203 -164 -245
-245 -57 -108 -72 -192 -72 -398 0 -127 4 -185 12 -193 17 -17 2039 -17 2056
0 18 18 16 344 -3 433 -24 114 -77 209 -164 295 -45 45 -101 89 -138 108 -72
38 -196 72 -262 72 -38 0 -60 8 -113 43 -67 42 -67 42 -68 88 0 40 5 51 41 90
22 24 55 74 72 111 30 61 36 68 85 88 85 36 128 113 120 216 -4 44 -11 61 -35
87 -27 27 -30 36 -21 57 16 39 22 238 9 305 -34 182 -175 332 -356 380 -77 20
-318 20 -392 0z m449 -107 c91 -45 147 -103 191 -196 31 -66 32 -70 31 -207 0
-150 -10 -195 -43 -195 -27 0 -75 59 -96 116 -32 91 -21 88 -195 59 -117 -19
-216 -16 -350 11 -85 17 -110 12 -110 -25 0 -27 -46 -115 -73 -139 -61 -57
-90 11 -85 198 4 104 7 122 35 182 40 84 97 147 172 186 84 46 118 51 292 49
l155 -2 76 -37z m-350 -510 c92 -11 247 -3 325 18 18 5 25 -2 42 -42 12 -26
37 -67 57 -91 l36 -44 -4 -127 c-3 -114 -6 -133 -31 -187 -36 -78 -104 -146
-181 -182 -52 -24 -74 -28 -146 -28 -72 0 -94 4 -145 28 -78 37 -146 104 -182
181 -25 54 -28 75 -31 188 l-4 127 36 44 c20 24 45 65 57 91 19 43 23 47 47
42 15 -3 71 -11 124 -18z m-342 -263 c0 -52 -4 -95 -8 -95 -5 0 -21 13 -37 30
-21 22 -29 42 -33 79 -5 60 8 81 49 81 l29 0 0 -95z m950 80 c22 -27 7 -111
-25 -145 -16 -17 -32 -30 -37 -30 -4 0 -8 43 -8 95 l0 95 29 0 c16 0 34 -7 41
-15z m-510 -579 c73 0 107 5 148 21 l52 21 0 -52 0 -52 -90 -77 c-49 -43 -96
-80 -103 -83 -8 -3 -56 31 -111 77 l-96 83 0 52 0 52 53 -21 c40 -16 74 -21
147 -21z m-163 -200 c51 -43 93 -82 93 -85 -1 -8 -207 -161 -218 -161 -7 0
-62 257 -62 292 0 9 14 25 32 36 26 17 36 18 48 9 8 -7 57 -48 107 -91z m510
56 c7 -17 -49 -302 -59 -302 -11 0 -217 153 -218 161 0 4 48 48 107 98 l106
90 30 -17 c16 -9 32 -23 34 -30z m-742 -209 c20 -104 42 -194 47 -200 18 -22
39 -14 114 42 40 30 77 55 81 55 4 0 19 -17 32 -37 l24 -37 -65 -196 -64 -195
-207 -3 -206 -2 -3 111 c-3 94 -6 114 -20 123 -13 8 -23 8 -35 0 -15 -9 -18
-29 -21 -123 l-3 -111 -119 0 -120 0 0 148 c0 169 14 244 63 336 79 151 266
271 428 275 l36 1 38 -187z m954 172 c187 -44 342 -199 386 -386 9 -42 15
-115 15 -211 l0 -148 -120 0 -119 0 -3 111 c-3 94 -6 114 -20 123 -13 8 -23 8
-35 0 -15 -9 -18 -29 -21 -123 l-3 -111 -206 2 -207 3 -64 195 -65 196 24 37
c13 20 28 37 32 37 4 0 41 -25 81 -55 75 -56 96 -64 114 -42 5 6 27 96 47 200
l38 187 31 0 c17 0 60 -7 95 -15z m-515 -188 c35 -30 38 -35 27 -55 -10 -19
-20 -22 -71 -22 -51 0 -61 3 -71 22 -11 20 -8 25 27 55 21 18 41 33 44 33 3 0
23 -15 44 -33z m33 -352 c35 -104 63 -193 63 -197 0 -5 -63 -8 -140 -8 -77 0
-140 4 -140 8 0 6 108 335 125 380 13 34 33 -7 92 -183z"/>
</g>
</svg>
